<?xml version="1.0" standalone="no"?><!DOCTYPE svg PUBLIC "-//W3C//DTD SVG 1.1//EN" "http://www.w3.org/Graphics/SVG/1.1/DTD/svg11.dtd"><svg t="1761497936944" class="icon" viewBox="0 0 1024 1024" version="1.1" xmlns="http://www.w3.org/2000/svg" p-id="7756" xmlns:xlink="http://www.w3.org/1999/xlink" width="256" height="256"><path d="M231.849057 0h96.603773v96.603774h-96.603773zM231.849057 115.924528h96.603773v96.603774h-96.603773zM115.924528 115.924528h96.603774v96.603774H115.924528zM231.849057 231.849057h96.603773v96.603773h-96.603773zM347.773585 231.849057h96.603773v96.603773h-96.603773zM463.698113 231.849057h96.603774v96.603773h-96.603774zM579.622642 231.849057h96.603773v96.603773h-96.603773zM695.54717 231.849057h96.603773v96.603773h-96.603773zM231.849057 347.773585h96.603773v96.603773h-96.603773zM231.849057 463.698113h96.603773v96.603774h-96.603773zM695.54717 463.698113h96.603773v96.603774h-96.603773zM695.54717 579.622642h96.603773v96.603773h-96.603773zM231.849057 695.54717h96.603773v96.603773h-96.603773zM347.773585 695.54717h96.603773v96.603773h-96.603773zM463.698113 695.54717h96.603774v96.603773h-96.603774zM579.622642 695.54717h96.603773v96.603773h-96.603773zM695.54717 695.54717h96.603773v96.603773h-96.603773zM695.54717 927.396226h96.603773v96.603774h-96.603773zM695.54717 811.471698h96.603773v96.603774h-96.603773zM811.471698 811.471698h96.603774v96.603774h-96.603774zM0 792.150943v-96.603773h96.603774v96.603773zM0 676.226415v-96.603773h96.603774v96.603773zM0 560.301887v-96.603774h96.603774v96.603774zM0 328.45283v-96.603773h96.603774v96.603773zM115.924528 792.150943v-96.603773h96.603774v96.603773zM115.924528 444.377358v-96.603773h96.603774v96.603773zM115.924528 328.45283v-96.603773h96.603774v96.603773zM927.396226 792.150943v-96.603773h96.603774v96.603773zM927.396226 560.301887v-96.603774h96.603774v96.603774zM927.396226 444.377358v-96.603773h96.603774v96.603773zM927.396226 328.45283v-96.603773h96.603774v96.603773zM811.471698 792.150943v-96.603773h96.603774v96.603773zM811.471698 676.226415v-96.603773h96.603774v96.603773zM811.471698 328.45283v-96.603773h96.603774v96.603773z" fill="#a5d1d9" p-id="7757" data-spm-anchor-id="a313x.search_index.0.i19.b28e3a819VjfYZ" class=""></path></svg>