<?xml version="1.0" standalone="no"?><!DOCTYPE svg PUBLIC "-//W3C//DTD SVG 1.1//EN" "http://www.w3.org/Graphics/SVG/1.1/DTD/svg11.dtd"><svg t="1761498553530" class="icon" viewBox="0 0 1024 1024" version="1.1" xmlns="http://www.w3.org/2000/svg" p-id="24357" xmlns:xlink="http://www.w3.org/1999/xlink" width="256" height="256"><path d="M511.983221 65.765105a27.621344 27.621344 0 0 1 13.481846 3.61708L892.927589 279.501694a26.79928 26.79928 0 0 1 13.646259 23.346613v418.266065a27.621344 27.621344 0 0 1-13.646259 23.675437L525.465067 954.580493a27.128106 27.128106 0 0 1-26.963693 0L131.038853 744.789809A27.621344 27.621344 0 0 1 117.392593 721.114372V302.848307A26.79928 26.79928 0 0 1 131.038853 279.501694L498.501374 69.382185A27.621344 27.621344 0 0 1 511.983221 65.765105m0-65.765105a92.564385 92.564385 0 0 0-46.199986 12.330957L98.485126 222.121641A93.057623 93.057623 0 0 0 51.627489 302.848307v418.266065a93.057623 93.057623 0 0 0 46.857637 80.726666l367.298109 209.955096a93.550861 93.550861 0 0 0 92.399972 0l367.298109-209.955096A93.057623 93.057623 0 0 0 972.338953 721.114372V302.848307a93.057623 93.057623 0 0 0-46.857637-80.726666L558.183207 12.330957A92.564385 92.564385 0 0 0 511.983221 0z" fill="#808080" p-id="24358"></path><path d="M377.98682 658.801935h-34.691092l29.758709-125.940175h-85.987874l-29.923122 125.940175h-34.691093l63.956564-269.14369h34.691093l-26.963693 113.280392H380.453012l26.963693-113.280392h34.691092zM585.311312 598.95569a88.454066 88.454066 0 0 1-35.019918 45.706748 93.222036 93.222036 0 0 1-53.762973 16.441276 62.148024 62.148024 0 0 1-53.927386-24.333089 80.39784 80.39784 0 0 1-7.562987-66.915994 120.514554 120.514554 0 0 1 39.29465-66.915994 98.647657 98.647657 0 0 1 65.765105-24.333088 54.256211 54.256211 0 0 1 47.02205 21.209246c10.193591 14.139497 11.508893 37.48611 3.781493 70.039836h-122.65192c-5.425621 23.017787-4.439145 39.29465 2.795017 49.323829a38.472586 38.472586 0 0 0 32.060489 14.139497 50.310305 50.310305 0 0 0 29.265471-8.549463 56.722403 56.722403 0 0 0 19.729532-25.977217zM561.307049 545.521542a38.143761 38.143761 0 0 0-6.247685-30.745186 34.033442 34.033442 0 0 0-25.155152-8.713876 55.900339 55.900339 0 0 0-29.265472 8.713876 73.328092 73.328092 0 0 0-25.319565 30.745186zM765.836524 658.801935h-36.170807L701.87996 591.885941l-59.846245 67.738058h-36.170807l83.192857-89.769368-36.828459-86.481112h36.170808l23.675438 65.765104 54.913862-65.765104h36.170807L725.719811 569.032567z" fill="#808080" p-id="24359"></path></svg>