<?xml version="1.0" standalone="no"?><!DOCTYPE svg PUBLIC "-//W3C//DTD SVG 1.1//EN" "http://www.w3.org/Graphics/SVG/1.1/DTD/svg11.dtd"><svg t="1761498238592" class="icon" viewBox="0 0 1024 1024" version="1.1" xmlns="http://www.w3.org/2000/svg" p-id="12679" xmlns:xlink="http://www.w3.org/1999/xlink" width="256" height="256"><path d="M920.917333 170.666667H88.917333A32.085333 32.085333 0 0 0 56.888889 202.695111v575.943111c0 17.635556 14.392889 32.028444 32.028444 32.028445h831.943111c17.635556 0 32.028444-14.392889 32.028445-32.028445V202.695111A32.085333 32.085333 0 0 0 920.860444 170.666667z m-288.028444 128h64v64h-64V298.666667z m-128 0H568.888889v64H504.888889V298.666667z m-128 0H440.888889v64H376.888889V298.666667z m128 128v64H440.888889V426.666667h64zM184.888889 298.666667H312.888889v64H184.888889V298.666667zM376.888889 426.666667v64H312.888889V426.666667h64z m-192 0h64v64H184.888889V426.666667zM568.888889 618.666667H184.888889V554.666667H568.888889v64zM568.888889 426.666667h64v64H568.888889V426.666667z m256 192h-192V554.666667h128V426.666667H824.888889v192z m0-256h-64V298.666667H824.888889v64z" fill="#0B82FF" p-id="12680"></path></svg>