<?xml version="1.0" standalone="no"?><!DOCTYPE svg PUBLIC "-//W3C//DTD SVG 1.1//EN" "http://www.w3.org/Graphics/SVG/1.1/DTD/svg11.dtd"><svg t="1761498494943" class="icon" viewBox="0 0 1024 1024" version="1.1" xmlns="http://www.w3.org/2000/svg" p-id="22478" xmlns:xlink="http://www.w3.org/1999/xlink" width="256" height="256"><path d="M483.918 79.57a64 64 0 0 1 55.579-0.282l0.585 0.282 336 164.067A64.012 64.012 0 0 1 912 300.414v280.423l-1.43 4.62c-71.508 231.136-203.927 357.79-394.746 373.427l-5.8 0.44-3.887 0.27-3.838-0.668c-197.229-34.393-327.422-158.589-387.343-368.01l-1.794-6.372-1.162-4.193V301.147a64 64 0 0 1 35.261-57.185l0.657-0.325 336-164.067zM512 137.079L176 301.146v270.44l0.437 1.55c52.265 182.906 160.114 288.418 326.59 320.847l5.064 0.96 1.347 0.242 1.07-0.08c159.21-13.037 270.09-116.389 335.005-316.208l1.953-6.085 0.534-1.709V301.147L512 137.079zM512 210c80.634 0 146 65.366 146 146 0 69.64-48.757 127.892-113.998 142.482L544 578h96c0 35.346-28.654 64-64 64h-32v62h96c0 35.346-28.654 64-64 64h-32v64c-35.346 0-64-28.654-64-64l-0.001-269.518C414.758 483.892 366 425.64 366 356c0-80.634 65.366-146 146-146z m0 64c-45.287 0-82 36.713-82 82s36.713 82 82 82 82-36.713 82-82-36.713-82-82-82z" fill="#0840F8" p-id="22479"></path></svg>