<?xml version="1.0" standalone="no"?><!DOCTYPE svg PUBLIC "-//W3C//DTD SVG 1.1//EN" "http://www.w3.org/Graphics/SVG/1.1/DTD/svg11.dtd"><svg t="1761497543430" class="icon" viewBox="0 0 1024 1024" version="1.1" xmlns="http://www.w3.org/2000/svg" p-id="1633" xmlns:xlink="http://www.w3.org/1999/xlink" width="256" height="256"><path d="M168.106667 68.266667h698.436266a99.9424 99.9424 0 0 1 99.9424 99.84V848.213333a99.84 99.84 0 0 1-99.805866 99.84H168.106667A99.84 99.84 0 0 1 68.266667 848.213333V168.106667A99.84 99.84 0 0 1 168.106667 68.266667z m673.553066 804.864a49.834667 49.834667 0 0 0 49.834667-49.8688h-0.1024V192.955733a49.834667 49.834667 0 0 0-49.834667-49.834666H192.955733a49.834667 49.834667 0 0 0-49.834666 49.834666V823.296c0 27.511467 22.3232 49.834667 49.834666 49.834667H841.728z m-356.864-252.245334l-42.769066-38.912c-62.225067-62.190933-62.225067-159.402667 0-221.627733l108.885333-108.885333c62.190933-62.225067 159.402667-62.225067 221.627733 0 62.225067 62.225067 62.225067 159.4368 0 221.661866l-81.646933 81.646934-54.442667-54.442667 81.646934-81.646933c31.1296-31.1296 31.1296-77.789867 0-108.885334-31.095467-31.095467-81.646933-31.095467-108.885334 0l-112.7424 104.994134c-31.1296 31.095467-31.1296 77.755733 0 108.885333l42.769067 42.769067-54.442667 54.442666zM360.3456 819.2c-38.912 0-77.789867-15.5648-108.885333-46.660267-62.225067-62.225067-62.225067-159.4368 0-221.661866l81.646933-81.646934 54.442667 54.442667-81.646934 81.646933c-31.095467 31.095467-31.095467 77.789867 0 108.885334s77.789867 31.095467 108.885334 0l108.885333-108.885334a76.8 76.8 0 0 0 23.313067-54.442666c0-19.456-7.748267-38.912-19.456-54.442667l-42.734934-38.877867 54.442667-54.442666 42.769067 42.769066c27.204267 27.2384 42.769067 66.116267 42.769066 108.885334s-15.5648 81.646933-46.660266 108.885333l-108.885334 108.885333c-27.2384 31.095467-69.973333 46.660267-108.885333 46.660267z" fill="#8caa47" p-id="1634" data-spm-anchor-id="a313x.search_index.0.i0.b28e3a819VjfYZ" class="selected"></path></svg>