<?xml version="1.0" standalone="no"?><!DOCTYPE svg PUBLIC "-//W3C//DTD SVG 1.1//EN" "http://www.w3.org/Graphics/SVG/1.1/DTD/svg11.dtd"><svg t="1761498175224" class="icon" viewBox="0 0 1024 1024" version="1.1" xmlns="http://www.w3.org/2000/svg" p-id="11518" xmlns:xlink="http://www.w3.org/1999/xlink" width="256" height="256"><path d="M653.885 0a92.16 92.16 0 0 1 65.096 26.931L906.598 214.15a92.16 92.16 0 0 1 27.054 65.229v120.627a80.108 80.108 0 0 1 80.108 80.087v319.795a80.108 80.108 0 0 1-77.558 80.067l-2.55 0.03v48.006c0 53.022-43.028 96-96.122 96H196.71c-53.094 0-96.122-42.978-96.122-96v-48.005a80.108 80.108 0 0 1-80.108-80.087V480.102a80.108 80.108 0 0 1 77.558-80.066l2.55-0.041V96c0-53.023 43.028-96 96.122-96h457.175zM837.53 879.995H196.71v17.285A30.72 30.72 0 0 0 227.43 928h579.38a30.72 30.72 0 0 0 30.72-30.72v-17.285zM289.178 559.493h-66.263L188.713 719.36h39.26l20.245-93.83c0.378-1.72 1.167-5.98 2.365-12.768 1.198-6.78 2.703-15.36 4.506-25.703h1.904l5.735 132.301h39.383l62.208-132.3h1.351a914.975 914.975 0 0 0-4.894 18.902 366.387 366.387 0 0 0-3.769 16.876l-20.131 96.522h39.485l34.54-159.867h-68.742l-37.007 80.558a346.624 346.624 0 0 0-7.598 17.49c-2.14 5.366-3.922 10.445-5.345 15.247 0.225-3.973 0.399-7.577 0.512-10.803 0.102-3.225 0.163-6.072 0.163-8.55 0-2.929-0.02-5.345-0.05-7.26a229.376 229.376 0 0 0-0.175-5.448l-3.481-81.234z m195.41 0h-42.64L407.86 719.36h42.64l34.089-159.867z m98.324 0h-66.263L482.447 719.36h39.26l20.255-93.83c0.369-1.72 1.157-5.98 2.355-12.768l0.963-5.428 1.065-6.082 2.478-14.193h1.915l5.734 132.301h39.373l62.218-132.3h1.352a914.975 914.975 0 0 0-4.895 18.902 366.387 366.387 0 0 0-3.768 16.876L630.61 719.36h39.485l34.54-159.867h-68.741l-37.008 80.558a346.624 346.624 0 0 0-7.598 17.49c-2.13 5.366-3.911 10.445-5.345 15.247 0.225-3.973 0.4-7.577 0.512-10.803 0.102-3.225 0.164-6.072 0.164-8.55 0-2.929-0.01-5.345-0.051-7.26a229.376 229.376 0 0 0-0.174-5.448l-3.482-81.234z m264.489 0h-112.62L700.703 719.36h115.2l6.41-29.921h-72.56l8.324-39.383h66.038l6.073-28.795h-65.926l6.636-32.062h70.082l6.421-29.696zM608.338 88.32H227.43a30.72 30.72 0 0 0-30.72 30.72v280.955h640.82v-81.562H700.529c-50.893-0.01-92.15-41.267-92.16-92.16l-0.031-137.953z m96.123 59.843v58.91a15.36 15.36 0 0 0 15.36 15.36h59.085l-74.445-74.27z" fill="#8a8a8a" p-id="11519" data-spm-anchor-id="a313x.search_index.0.i28.b28e3a819VjfYZ" class="selected"></path></svg>