<?xml version="1.0" standalone="no"?><!DOCTYPE svg PUBLIC "-//W3C//DTD SVG 1.1//EN" "http://www.w3.org/Graphics/SVG/1.1/DTD/svg11.dtd"><svg t="1761498120612" class="icon" viewBox="0 0 1024 1024" version="1.1" xmlns="http://www.w3.org/2000/svg" p-id="10237" xmlns:xlink="http://www.w3.org/1999/xlink" width="256" height="256"><path d="M298.545664 416.256h73.728v-44.032h102.912v279.552h-44.032v73.728h161.792v-73.728h-44.032V372.224h102.912v44.032h73.728v-117.76H298.545664v117.76zM460.337664 815.104c-12.288-12.288-32.256-12.288-44.544 0-5.632 6.144-9.216 13.824-9.216 22.016V1024h176.128c18.944-1.024 33.28-16.384 33.792-35.328v-1.024c0.512-9.728-3.584-18.944-10.24-25.6l-145.92-146.944z" fill="#407CD5" p-id="10238"></path><path d="M101.937664 873.472V150.016c0-26.624 21.504-47.616 47.616-47.616h144.384V0H149.553664C67.121664 0 0.049664 67.584 0.049664 150.016v723.456c-1.024 38.912 13.824 76.288 41.472 104.96 28.16 28.672 67.072 45.056 107.008 45.056h258.048v-102.4H149.553664c-26.624 0.512-47.616-20.992-47.616-47.616zM982.577664 45.056C954.417664 16.384 916.017664 0 875.569664 0h-258.048v102.4h257.536c26.624 0 47.616 21.504 47.616 47.616v723.456c0 26.624-21.504 47.616-47.616 47.616h-144.384v102.4h144.384c82.432 0 149.504-67.584 149.504-150.016V150.016c0.512-38.912-14.336-76.8-41.984-104.96zM407.089664 35.328v1.024c0 10.24 3.584 18.944 10.24 25.6L563.249664 208.896c12.288 12.288 32.256 12.288 44.544 0 5.632-6.144 9.216-13.824 9.216-22.016V0H440.881664c-18.432 1.536-33.28 16.896-33.792 35.328z" fill="#407CD5" p-id="10239"></path></svg>