<?xml version="1.0" standalone="no"?><!DOCTYPE svg PUBLIC "-//W3C//DTD SVG 1.1//EN" "http://www.w3.org/Graphics/SVG/1.1/DTD/svg11.dtd"><svg t="1761496575991" class="icon" viewBox="0 0 1024 1024" version="1.1" xmlns="http://www.w3.org/2000/svg" p-id="21042" xmlns:xlink="http://www.w3.org/1999/xlink" width="256" height="256"><path d="M561.408 95.573333a41.130667 41.130667 0 0 0-16.042667 3.157334 40.96 40.96 0 0 0-18.944 15.872 41.685333 41.685333 0 0 0-4.650666 8.32l-155.008 374.613333H217.301333a41.045333 41.045333 0 0 0-41.173333 41.173333 41.045333 41.045333 0 0 0 41.173333 41.130667h115.413334v0.085333h89.045333v-0.085333h89.130667c22.784 0 41.130667-18.346667 41.130666-41.130667a41.045333 41.045333 0 0 0-41.130666-41.130666h-55.04l104.96-253.824L832.853333 901.12a41.045333 41.045333 0 0 0 53.76 22.272 41.045333 41.045333 0 0 0 22.272-53.76l-309.76-748.586667a41.045333 41.045333 0 0 0-37.717333-25.429333zM153.130667 652.8a41.045333 41.045333 0 0 0-41.130667 41.130667c0 22.784 18.346667 41.130667 41.130667 41.130666h115.370666l-56.490666 136.533334a41.045333 41.045333 0 0 0 22.314666 53.76 41.045333 41.045333 0 0 0 53.76-22.272l69.461334-168.021334h89.173333a41.045333 41.045333 0 0 0 41.173333-41.130666 41.045333 41.045333 0 0 0-41.130666-41.130667z" fill="#F44336" p-id="21043" data-spm-anchor-id="a313x.search_index.0.i38.10b13a81ugOVmY" class="selected"></path></svg>