<?xml version="1.0" standalone="no"?><!DOCTYPE svg PUBLIC "-//W3C//DTD SVG 1.1//EN" "http://www.w3.org/Graphics/SVG/1.1/DTD/svg11.dtd"><svg t="1761496498789" class="icon" viewBox="0 0 1024 1024" version="1.1" xmlns="http://www.w3.org/2000/svg" p-id="20015" xmlns:xlink="http://www.w3.org/1999/xlink" width="256" height="256"><path d="M187.264 421.76c126.144 0 193.92 51.648 198.656 153.344l0.256 11.52v307.328H272.384v-40.32c-31.36 31.36-60.928 44.8-114.688 44.8-52.864 0-91.392-13.44-119.168-41.216C13.44 831.232 0 793.6 0 752.384c0-71.296 46.912-130.176 146.24-135.04l13.248-0.256h110.208v-23.296c0-51.072-25.088-73.472-86.912-73.472-41.088 0-61.824 9.024-83.584 31.936l-6.016 6.592L18.816 486.272c45.696-50.176 90.496-64.512 168.448-64.512zM780.416 256l232.96 637.952h-129.92l-37.632-112.896H619.136l-38.528 112.896h-129.92L682.752 256h97.664z m-510.72 440.832H177.408c-42.112 0-65.408 19.712-65.408 52.864 0 32.256 21.504 53.76 67.2 53.76 32.256 0 52.864-2.688 73.472-22.4 11.008-10.24 15.808-25.856 16.832-48.832l0.192-10.304v-25.088zM734.72 444.16l-80.64 232.064h158.592L734.72 444.16zM357.504 65.984L547.84 304H0v-96h348.16L282.496 126.016l75.008-60.032z" fill="#20A0FE" p-id="20016"></path></svg>