<?xml version="1.0" standalone="no"?><!DOCTYPE svg PUBLIC "-//W3C//DTD SVG 1.1//EN" "http://www.w3.org/Graphics/SVG/1.1/DTD/svg11.dtd"><svg t="1761496233747" class="icon" viewBox="0 0 1024 1024" version="1.1" xmlns="http://www.w3.org/2000/svg" p-id="15828" xmlns:xlink="http://www.w3.org/1999/xlink" width="256" height="256"><path d="M136.63247 0h195.798637c18.470765 4.820315 34.126124 14.716891 47.904547 27.599503 8.787477 8.104954 17.489639 16.337882 26.02117 24.74144a43105.560617 43105.560617 0 0 1 140.343686 140.514316c5.289549 5.289549 10.536441 7.209144 17.830899 5.758784 12.072116-2.346171 24.314863-3.284639 36.685584-3.28464 43.553466 0.127973 87.192247 1.365045 130.703056-0.341261 35.619142-1.407703 64.029141 11.048333 88.557292 35.6618 56.308105 56.564051 112.957471 112.829498 169.222918 169.478864 15.612702 15.698017 28.665944 33.272971 34.083467 55.369637v431.52484c-0.511892 2.260856-1.109099 4.521711-1.535676 6.825225-15.271441 77.039725-78.788689 129.551299-157.36409 129.679272-91.884589 0.170631-183.769179 0.55455-275.653768-0.170631-56.905312-0.426577-100.757382-26.277116-132.025443-73.456482-21.115539-31.865268-25.978512-67.825672-25.168017-105.065805 0.426577-17.27635 0.042658-17.319008-16.807116-17.319008-84.888734 0-169.820125 0.341261-254.708859-0.127973-91.287382-0.469234-160.392784-70.04387-160.392784-161.203279-0.170631-169.777468-0.170631-339.554936 0-509.332404 0-48.075177 19.11063-87.746797 54.985718-119.441434 23.333737-20.646305 51.189186-31.822611 81.476121-37.410764zM81.348149 405.930247v129.807245c-0.085315 43.29752-0.511892 86.59504-0.341262 129.849903 0.170631 47.691259 32.505133 80.622968 80.23905 80.836256 89.581076 0.426577 179.162152 0.298604 268.743228 0a93.377607 93.377607 0 0 0 71.067653-31.054773 38.263917 38.263917 0 0 0 10.579099-27.130268c-0.127973-134.499587 0-268.999174-0.127973-403.498761-0.042658-36.685584-10.323153-46.710132-46.966078-47.136709-23.333737-0.298604-46.667475 0.426577-69.915897-0.938469-26.703692-1.578333-40.610088-17.574954-40.780719-44.449277-0.127973-21.627431 0.085315-43.29752-0.042657-64.924951-0.213288-31.140088-15.356756-46.411529-46.667475-47.179366a201.770709 201.770709 0 0 0-5.033604-0.042658c-46.283556 0-92.567112 0-138.850667 0.085315-7.976982 0-15.911305 0.213288-23.760314 2.132883-33.144998 7.976982-54.345853 34.254097-54.303195 67.996302 0 85.229995-3.071351 170.417333-3.839189 255.647328z m862.281842 272.795705v-114.834407c-0.042658-32.291845 0.085315-64.58369-0.426576-96.875535-0.255946-17.27635-8.787477-26.874323-25.423963-31.268062a69.531978 69.531978 0 0 0-17.830899-1.706306c-23.632341-0.042658-47.264682 0.213288-70.939681-0.127973-21.670089-0.341261-38.306574-13.863738-41.29261-33.400944a170.204044 170.204044 0 0 1-1.450361-22.907161c-0.341261-21.328828-0.255946-42.614998-0.72518-63.901167a34.765989 34.765989 0 0 0-13.949053-27.556846c-9.597972-7.507747-20.902251-9.811261-32.846395-9.81126h-131.89747c-14.077026 0-14.418287 0.298604-14.418287 14.674233l0.042658 327.610792c0 3.839189-1.876937 9.043423 1.834279 11.133648 4.095135 2.303513 6.953198-2.687432 9.896576-4.948288 43.980043-33.486259 87.832112-67.143149 131.726839-100.672066 2.559459-1.919594 5.033603-5.673468 8.531531-3.881847 3.412612 1.748964 2.00491 5.972072 2.00491 9.171396 0.085315 28.964548 0.383919 57.929096-0.085315 86.850986-0.170631 9.768603 3.369955 12.669324 12.797296 12.541351 30.969458-0.426577 61.938915 0.127973 92.908373-0.341261 9.725945-0.127973 12.797297 3.412612 12.541351 12.797296-0.511892 16.977747-0.127973 33.955494-0.127973 50.933241 0 17.319008-0.042658 17.319008-16.935089 17.361665h-85.86986c-15.058152 0-15.143468 0.085315-15.143468 15.015495-0.042658 28.282025 0 56.564051-0.085315 84.888734 0 2.815405 0.938468 6.526621-2.602117 7.849008-2.815405 1.023784-4.90563-1.578333-6.995855-3.114008-7.422432-5.588153-14.844864-11.261621-22.224639-16.93509L597.207173 707.434554c-4.137793-3.156666-8.232927-7.166486-10.664413 1.791622-10.451126 38.946439-32.974367 69.31869-66.204681 91.927247a12.37072 12.37072 0 0 0-6.057387 10.664414c-0.341261 16.636486-1.578333 33.315629-1.151757 49.909456 1.194414 47.947204 32.334503 80.537653 78.319455 80.793599 91.585986 0.511892 183.129314 0.127973 274.7153 0.170631 24.186891 0 44.534592-9.384684 62.365492-25.168017a42.231079 42.231079 0 0 0 15.314098-34.083466c-0.55455-68.252248-0.255946-136.504497-0.255946-204.714088zM226.213546 487.918261c-15.143468 0-30.329593-0.255946-45.515718 0.085315-7.379774 0.213288-10.109864-2.900721-10.024549-10.579099 0.298604-19.665179 0.426577-39.373016 0-59.038194-0.213288-8.958108 3.412612-11.602882 11.304278-11.560225 28.452656 0.213288 56.905312 0.085315 85.315311 0.042658 15.527387 0 15.527387 0 15.527386-16.849774 0-27.044953-0.042658-54.047249 0.085316-81.049545 0-3.45527-1.578333-8.104954 2.303513-9.981891 3.241982-1.578333 5.673468 2.132883 8.104954 4.052477 56.990627 45.984952 113.895939 92.097878 170.971883 137.997514 6.014729 4.862973 7.038513 7.976982 0.341261 13.351847-57.630492 46.240898-115.047696 92.7804-172.592873 139.149271-2.132883 1.706306-4.351081 4.948288-7.337117 3.114009-2.858063-1.706306-1.791622-5.417522-1.791621-8.275585-0.085315-29.348467-0.383919-58.739591 0.085315-88.088058 0.170631-9.768603-3.199324-12.882612-12.20009-12.498693-14.844864 0.597207-29.689728 0.170631-44.577249 0.17063v-0.042657z" fill="#3882F5" p-id="15829" data-spm-anchor-id="a313x.search_index.0.i29.10b13a81ugOVmY" class=""></path></svg>