<?xml version="1.0" standalone="no"?><!DOCTYPE svg PUBLIC "-//W3C//DTD SVG 1.1//EN" "http://www.w3.org/Graphics/SVG/1.1/DTD/svg11.dtd"><svg t="1761495706163" class="icon" viewBox="0 0 1024 1024" version="1.1" xmlns="http://www.w3.org/2000/svg" p-id="6531" xmlns:xlink="http://www.w3.org/1999/xlink" width="256" height="256"><path d="M896 928H128a32 32 0 0 1-32-32V128a32 32 0 0 1 32-32h768a32 32 0 0 1 32 32v768a32 32 0 0 1-32 32zM160 864h704V160H160z" fill="#4A8BFE" p-id="6532"></path><path d="M768 288H256a32 32 0 0 1 0-64h512a32 32 0 0 1 0 64z" fill="#cdcdcd" p-id="6533" data-spm-anchor-id="a313x.search_index.0.i16.10b13a81ugOVmY" class="selected"></path><path d="M512 800a32 32 0 0 1-32-32V256a32 32 0 0 1 64 0v512a32 32 0 0 1-32 32z" fill="#cdcdcd" p-id="6534" data-spm-anchor-id="a313x.search_index.0.i14.10b13a81ugOVmY" class="selected"></path></svg>