<?xml version="1.0" standalone="no"?><!DOCTYPE svg PUBLIC "-//W3C//DTD SVG 1.1//EN" "http://www.w3.org/Graphics/SVG/1.1/DTD/svg11.dtd"><svg t="1761496633544" class="icon" viewBox="0 0 1024 1024" version="1.1" xmlns="http://www.w3.org/2000/svg" p-id="22018" xmlns:xlink="http://www.w3.org/1999/xlink" width="256" height="256"><path d="M5.12 3.7888h1013.76v1013.76H5.12z" fill="#5655FF" p-id="22019"></path><path d="M838.656 336.5888c29.696 0 53.76-24.064 53.76-53.76s-24.064-53.76-53.76-53.76-53.76 24.064-53.76 53.76 24.064 53.76 53.76 53.76zM229.376 596.6848c0 61.952 50.176 112.64 112.64 112.64s112.64-50.176 112.64-112.64v-339.456h99.328v349.184c0 104.96-84.992 189.952-189.952 189.952H322.56c-104.96 0-189.952-84.992-189.952-189.952v-349.184H230.4v339.456zM793.088 391.3728h91.136v395.776h-91.136z" fill="#FFFFFF" p-id="22020"></path><path d="M768 764.1088h60.928v23.552l-60.928-0.512z" fill="#FFFFFF" p-id="22021"></path><path d="M498.688 258.2528h80.384l269.824 499.712-81.92 29.184-247.808-459.264z" fill="#FFFFFF" p-id="22022"></path></svg>