<?xml version="1.0" standalone="no"?><!DOCTYPE svg PUBLIC "-//W3C//DTD SVG 1.1//EN" "http://www.w3.org/Graphics/SVG/1.1/DTD/svg11.dtd"><svg t="1761499264455" class="icon" viewBox="0 0 1024 1024" version="1.1" xmlns="http://www.w3.org/2000/svg" p-id="33075" xmlns:xlink="http://www.w3.org/1999/xlink" width="256" height="256"><path d="M258.257496 252.839506v189.62963h496.64903V231.167549H279.929453c-10.835979 0-21.671958 10.835979-21.671957 21.671957z m429.82716 140.867725H317.855379v-108.359788h370.229277v108.359788z" fill="#C0EAFF" p-id="33076"></path><path d="M711.56261 818.116402h-397.319224c-39.731922 0-72.239859-32.507937-72.239859-72.239859v-153.5097c0-10.835979 7.223986-18.059965 18.059965-18.059965s18.059965 7.223986 18.059965 18.059965v153.5097c0 19.865961 16.253968 36.119929 36.119929 36.11993h397.319224c19.865961 0 36.119929-16.253968 36.11993-36.11993v-469.559083c0-19.865961-16.253968-36.119929-36.11993-36.119929h-397.319224c-19.865961 0-36.119929 16.253968-36.119929 36.119929v86.687831c0 10.835979-7.223986 18.059965-18.059965 18.059965s-18.059965-7.223986-18.059965-18.059965v-86.687831c0-39.731922 32.507937-72.239859 72.239859-72.239859h397.319224c39.731922 0 72.239859 32.507937 72.239859 72.239859v469.559083c0 41.537919-32.507937 72.239859-72.239859 72.239859z" fill="#1F87DD" p-id="33077"></path><path d="M260.063492 520.126984c-10.835979 0-18.059965-7.223986-18.059965-18.059965v-54.179894c0-10.835979 7.223986-18.059965 18.059965-18.059965s18.059965 7.223986 18.059965 18.059965v54.179894c0 10.835979-9.029982 18.059965-18.059965 18.059965zM532.768959 527.35097h-41.537918c-10.835979 0-18.059965-7.223986-18.059965-18.059965s7.223986-18.059965 18.059965-18.059964h41.537918c10.835979 0 18.059965 7.223986 18.059965 18.059964s-7.223986 18.059965-18.059965 18.059965zM386.483245 527.35097H343.13933c-10.835979 0-18.059965-7.223986-18.059965-18.059965s7.223986-18.059965 18.059965-18.059964h41.537919c10.835979 0 18.059965 7.223986 18.059964 18.059964s-7.223986 18.059965-16.253968 18.059965zM680.86067 527.35097h-41.537919c-10.835979 0-18.059965-7.223986-18.059964-18.059965s7.223986-18.059965 18.059964-18.059964h41.537919c10.835979 0 18.059965 7.223986 18.059965 18.059964s-9.029982 18.059965-18.059965 18.059965z" fill="#1F87DD" p-id="33078"></path><path d="M532.768959 617.650794h-41.537918c-10.835979 0-18.059965-7.223986-18.059965-18.059965s7.223986-18.059965 18.059965-18.059965h41.537918c10.835979 0 18.059965 7.223986 18.059965 18.059965s-7.223986 18.059965-18.059965 18.059965zM386.483245 617.650794H343.13933c-10.835979 0-18.059965-7.223986-18.059965-18.059965s7.223986-18.059965 18.059965-18.059965h41.537919c10.835979 0 18.059965 7.223986 18.059964 18.059965s-7.223986 18.059965-16.253968 18.059965zM680.86067 617.650794h-41.537919c-10.835979 0-18.059965-7.223986-18.059964-18.059965s7.223986-18.059965 18.059964-18.059965h41.537919c10.835979 0 18.059965 7.223986 18.059965 18.059965s-9.029982 18.059965-18.059965 18.059965z" fill="#1F87DD" p-id="33079"></path><path d="M532.768959 707.950617h-41.537918c-10.835979 0-18.059965-7.223986-18.059965-18.059964s7.223986-18.059965 18.059965-18.059965h41.537918c10.835979 0 18.059965 7.223986 18.059965 18.059965s-7.223986 18.059965-18.059965 18.059964zM386.483245 707.950617H343.13933c-10.835979 0-18.059965-7.223986-18.059965-18.059964s7.223986-18.059965 18.059965-18.059965h41.537919c10.835979 0 18.059965 7.223986 18.059964 18.059965s-7.223986 18.059965-16.253968 18.059964zM680.86067 707.950617h-41.537919c-10.835979 0-18.059965-7.223986-18.059964-18.059964s7.223986-18.059965 18.059964-18.059965h41.537919c10.835979 0 18.059965 7.223986 18.059965 18.059965s-9.029982 18.059965-18.059965 18.059964z" fill="#1F87DD" p-id="33080"></path><path d="M698.920635 411.767196H325.079365c-10.835979 0-18.059965-7.223986-18.059965-18.059965v-108.359788c0-10.835979 7.223986-18.059965 18.059965-18.059965h373.84127c10.835979 0 18.059965 7.223986 18.059965 18.059965v108.359788c0 10.835979-9.029982 18.059965-18.059965 18.059965z m-355.781305-36.11993h337.72134v-72.239859H343.13933v72.239859z" fill="#1F87DD" p-id="33081"></path></svg>