<?xml version="1.0" standalone="no"?><!DOCTYPE svg PUBLIC "-//W3C//DTD SVG 1.1//EN" "http://www.w3.org/Graphics/SVG/1.1/DTD/svg11.dtd"><svg t="1761499468109" class="icon" viewBox="0 0 1024 1024" version="1.1" xmlns="http://www.w3.org/2000/svg" p-id="36595" xmlns:xlink="http://www.w3.org/1999/xlink" width="256" height="256"><path d="M512 0c282.784 0 512 229.216 512 512s-229.216 512-512 512S0 794.784 0 512 229.216 0 512 0z" fill="#1BBAE1" p-id="36596"></path><path d="M512 64c247.424 0 448 200.576 448 448s-200.576 448-448 448S64 759.424 64 512 264.576 64 512 64z m-112 224h-128a32 32 0 1 0 0 64h32v320h-32a32 32 0 0 0 0 64h128a32 32 0 0 0 0-64h-32V352h32a32 32 0 0 0 0-64z m379.232 2.048a32 32 0 0 0-41.184 18.72L624 612.8l-114.048-304.064-1.504-3.424a32 32 0 0 0-58.4 25.92l144 384 1.664 3.744c12.384 23.84 48.352 22.592 58.24-3.776l144-384 1.12-3.552a32 32 0 0 0-19.84-37.632z" fill="#FFFFFF" p-id="36597"></path></svg>