<?xml version="1.0" standalone="no"?><!DOCTYPE svg PUBLIC "-//W3C//DTD SVG 1.1//EN" "http://www.w3.org/Graphics/SVG/1.1/DTD/svg11.dtd"><svg t="1761499333115" class="icon" viewBox="0 0 1024 1024" version="1.1" xmlns="http://www.w3.org/2000/svg" p-id="34449" xmlns:xlink="http://www.w3.org/1999/xlink" width="256" height="256"><path d="M534.65806365 155.1170865v280.83548024l107.68879317 107.58824339-71.08868047 71.18923022L434.10830343 477.58016745V155.1170865h100.54976022z" fill="#6172AC" p-id="34450"></path><path d="M489.24444445 93.66186668a372.82702222 372.82702222 0 0 0-87.9043268 735.21488782v52.77573626c0 13.83602505 5.96523235 26.18074201 15.4101836 34.79718873A455.76032205 455.76032205 0 0 1 489.24444445 10.81141729a455.67747161 455.67747161 0 0 1 414.9150505 644.32794485h-93.20675555A372.82702222 372.82702222 0 0 0 489.24444445 93.66186668z" fill="#515151" p-id="34451" data-spm-anchor-id="a313x.search_index.0.i62.b28e3a819VjfYZ" class="selected"></path><path d="M648.72978964 552.20967349a7.30119585 7.30119585 0 0 1 10.3304154 0l41.47700622 41.39933393a7.30119585 7.30119585 0 0 1 0 10.4080877l-78.83738074 78.75970844h343.7775834c4.03895941 0 7.30119585 3.26223645 7.30119586 7.30119586v58.6425837a7.30119585 7.30119585 0 0 1-7.30119586 7.30119585H462.54929542a7.30119585 7.30119585 0 0 1-5.12637157-12.50523971l191.30686579-191.30686577zM795.91879112 865.92807823H452.2965523a7.30119585 7.30119585 0 0 1-7.30119585-7.37886814v-58.56491142c0-4.03895941 3.26223645-7.30119585 7.30119585-7.30119585h502.85044622c6.60214518 0 9.86438163 7.84490192 5.20404385 12.42756741l-191.30686578 191.38453808a7.30119585 7.30119585 0 0 1-10.3304154 0l-41.47700622-41.47700622a7.30119585 7.30119585 0 0 1 0-10.33041542l78.75970845-78.75970844z" fill="#387CFF" p-id="34452"></path></svg>