<?xml version="1.0" standalone="no"?><!DOCTYPE svg PUBLIC "-//W3C//DTD SVG 1.1//EN" "http://www.w3.org/Graphics/SVG/1.1/DTD/svg11.dtd"><svg t="1761498581898" class="icon" viewBox="0 0 1024 1024" version="1.1" xmlns="http://www.w3.org/2000/svg" p-id="25414" xmlns:xlink="http://www.w3.org/1999/xlink" width="256" height="256"><path d="M324.4 467.7H206.6c-78.3 0-141.9-63.7-141.9-141.9V208c0-78.3 63.7-141.9 141.9-141.9h117.8c78.3 0 141.9 63.7 141.9 141.9v117.8c0 78.3-63.6 141.9-141.9 141.9z m-117.8-334c-41 0-74.3 33.3-74.3 74.3v117.8c0 41 33.3 74.3 74.3 74.3h117.8c41 0 74.3-33.3 74.3-74.3V208c0-41-33.3-74.3-74.3-74.3H206.6zM324.4 957.9H206.6c-78.3 0-141.9-63.7-141.9-141.9V698.2c0-78.3 63.7-141.9 141.9-141.9h117.8c78.3 0 141.9 63.7 141.9 141.9V816c0 78.3-63.6 141.9-141.9 141.9z m-117.8-334c-41 0-74.3 33.3-74.3 74.3V816c0 41 33.3 74.3 74.3 74.3h117.8c41 0 74.3-33.3 74.3-74.3V698.2c0-41-33.3-74.3-74.3-74.3H206.6zM817.4 467.7H699.6c-78.3 0-141.9-63.7-141.9-141.9V208c0-78.3 63.7-141.9 141.9-141.9h117.8c78.3 0 141.9 63.7 141.9 141.9v117.8c0 78.3-63.6 141.9-141.9 141.9z m-117.8-334c-41 0-74.3 33.3-74.3 74.3v117.8c0 41 33.3 74.3 74.3 74.3h117.8c41 0 74.3-33.3 74.3-74.3V208c0-41-33.3-74.3-74.3-74.3H699.6z" fill="#6C8CD5" p-id="25415"></path><path d="M758.5 957.9c-110.7 0-200.8-90.1-200.8-200.8 0-110.7 90.1-200.8 200.8-200.8s200.8 90.1 200.8 200.8c0 110.7-90.1 200.8-200.8 200.8z m0-334c-73.5 0-133.2 59.8-133.2 133.2 0 73.5 59.8 133.2 133.2 133.2s133.2-59.8 133.2-133.2c0-73.5-59.7-133.2-133.2-133.2z" fill="#FFAB00" p-id="25416"></path></svg>