<?xml version="1.0" standalone="no"?><!DOCTYPE svg PUBLIC "-//W3C//DTD SVG 1.1//EN" "http://www.w3.org/Graphics/SVG/1.1/DTD/svg11.dtd"><svg t="1761498787752" class="icon" viewBox="0 0 1024 1024" version="1.1" xmlns="http://www.w3.org/2000/svg" p-id="25584" xmlns:xlink="http://www.w3.org/1999/xlink" width="256" height="256"><path d="M437.732018 48.683792 82.89957 48.683792 82.89957 290.292526 121.85479 290.292526 121.85479 87.637989 437.732018 87.637989Z" p-id="25585" data-spm-anchor-id="a313x.search_index.0.i42.b28e3a819VjfYZ" class="" fill="#d4237a"></path><path d="M582.639339 48.683792 582.639339 87.637989 898.515542 87.637989 898.515542 290.292526 937.470763 290.292526 937.470763 48.683792Z" p-id="25586" data-spm-anchor-id="a313x.search_index.0.i41.b28e3a819VjfYZ" class="" fill="#e6e6e6"></path><path d="M437.732018 947.079096 121.85479 947.079096 121.85479 744.425583 82.89957 744.425583 82.89957 986.033293 437.732018 986.033293Z" p-id="25587" data-spm-anchor-id="a313x.search_index.0.i43.b28e3a819VjfYZ" class="" fill="#8a8a8a"></path><path d="M898.515542 744.425583 898.515542 947.079096 582.639339 947.079096 582.639339 986.033293 937.470763 986.033293 937.470763 744.425583Z" p-id="25588"></path><path d="M85.334016 483.649302l852.136747 0 0 51.132564-852.136747 0 0-51.132564Z" p-id="25589" data-spm-anchor-id="a313x.search_index.0.i40.b28e3a819VjfYZ" class="" fill="#1296db"></path></svg>